<svg width="100" height="100" viewBox="0 0 100 100" xmlns="http://www.w3.org/2000/svg">
  <rect width="100" height="100" rx="20" fill="#4285F4"/>
  <path d="M30 25 L50 35 L70 25 L70 45 L50 55 L30 45 Z" fill="white"/>
  <path d="M30 55 L50 65 L70 55 L70 75 L50 85 L30 75 Z" fill="white"/>
  <path d="M50 35 L50 55 M50 65 L50 85" stroke="white" stroke-width="3"/>
  <circle cx="50" cy="35" r="5" fill="#34A853"/>
  <circle cx="50" cy="55" r="5" fill="#FBBC05"/>
  <circle cx="50" cy="65" r="5" fill="#EA4335"/>
  <circle cx="50" cy="85" r="5" fill="#34A853"/>
  <circle cx="30" cy="25" r="5" fill="#EA4335"/>
  <circle cx="70" cy="25" r="5" fill="#FBBC05"/>
  <circle cx="30" cy="45" r="5" fill="#34A853"/>
  <circle cx="70" cy="45" r="5" fill="#EA4335"/>
  <circle cx="30" cy="55" r="5" fill="#FBBC05"/>
  <circle cx="70" cy="55" r="5" fill="#34A853"/>
  <circle cx="30" cy="75" r="5" fill="#EA4335"/>
  <circle cx="70" cy="75" r="5" fill="#FBBC05"/>
</svg>